<?xml version="1.0" encoding="UTF-8"?>
<svg width="81px" height="61px" viewBox="0 0 81 61" version="1.1" xmlns="http://www.w3.org/2000/svg" xmlns:xlink="http://www.w3.org/1999/xlink">
    <!-- Generator: Sketch 43.1 (39012) - http://www.bohemiancoding.com/sketch -->
    <title>Group@2x</title>
    <desc>Created with Sketch.</desc>
    <defs>
        <rect id="path-1" x="3.74252598" y="3.80309774" width="55.8516824" height="4.91339653"></rect>
        <rect id="path-3" x="7.91208791" y="23.8235294" width="10.5494505" height="10.5882353" rx="1"></rect>
        <rect id="path-4" x="5.93010867" y="7.35294118" width="16.7032967" height="8.82352941" rx="1"></rect>
    </defs>
    <g id="Page-1" stroke="none" stroke-width="1" fill="none" fill-rule="evenodd">
        <g id="官网首页-最终" transform="translate(-284.000000, -1057.000000)">
            <g id="Group" transform="translate(285.000000, 1058.000000)">
                <path d="M3.74252598,7.53343801 C3.74252598,5.48165484 5.42653503,3.80309774 7.48498241,3.80309774 L55.851752,3.80309774 C57.9101994,3.80309774 59.5942084,5.48165484 59.5942084,7.53279783 L59.5942084,8.71649427 L3.74252598,8.71649427 L3.74252598,7.53343801 Z" id="Shape" fill="#EEEEEE"></path>
                <rect id="Rectangle-path" fill="#DBDBDB" x="25.5325241" y="48.1216143" width="12.1464452" height="2.88401972"></rect>
                <path d="M51.4310677,47.8751443 L7.43938186,47.8751443 C3.78577987,47.8751443 0.795189003,44.8938563 0.795189003,41.2518217 L0.795189003,7.33690215 C0.795189003,3.69499814 3.78564893,0.714219795 7.43938186,0.714219795 L55.8979948,0.714219795 C59.5517277,0.714219795 62.5421877,3.69499814 62.5421877,7.33690215 L62.5421877,20.3306753 L63.1844489,20.3306753 L63.1844489,7.33690215 C63.1844489,3.3414354 59.9064388,0.0740378376 55.8979948,0.0740378376 L7.43938186,0.0740378376 C3.43093782,0.0740378376 0.152927732,3.3414354 0.152927732,7.33690215 L0.152927732,41.2518217 C0.152927732,45.2474008 3.43105048,48.5153262 7.43938186,48.5153262 L51.4310677,48.5153262 L51.4310677,47.8751443 Z" id="Shape" stroke="#3D3D3D" stroke-width="0.4" fill="#3D3D3D" fill-rule="nonzero"></path>
                <path d="M51.4310677,37.9292774 L7.48498241,37.9292774 C5.60453285,37.9292774 4.06429888,36.3940299 4.06429888,34.5196683 L4.06429888,7.53343801 C4.06429888,5.6584362 5.60453285,4.12318872 7.48562467,4.12318872 L55.8523943,4.12318872 C57.7330738,4.12318872 59.2730778,5.65802525 59.2730778,7.53279783 L59.2730778,21.03043 L59.9153391,21.03043 L59.9153391,7.53279783 C59.9153391,5.30444555 58.0877679,3.48300676 55.8523943,3.48300676 L7.48562467,3.48300676 C5.24982174,3.48300676 3.4220376,5.30487347 3.4220376,7.53343801 L3.4220376,34.5196683 C3.4220376,36.7475926 5.24982174,38.5694593 7.48498241,38.5694593 L51.4310677,38.5694593 L51.4310677,37.9292774 Z" id="Shape" stroke="#3D3D3D" stroke-width="0.4" fill="#3D3D3D" fill-rule="nonzero"></path>
                <mask id="mask-2" fill="white">
                    <use xlink:href="#path-1"></use>
                </mask>
                <g id="Rectangle-path"></g>
                <path d="M59.2730778,8.39640329 L59.2730778,7.53279783 C59.2730778,5.65834535 57.7327527,4.12318872 55.851752,4.12318872 L7.48498241,4.12318872 C5.60389059,4.12318872 4.06365662,5.6584362 4.06365662,7.53343801 L4.06365662,8.39640329 L59.2730778,8.39640329 Z M3.42139534,7.53343801 C3.42139534,5.30487347 5.24917948,3.48300676 7.48498241,3.48300676 L55.851752,3.48300676 C58.0874467,3.48300676 59.9153391,5.30476565 59.9153391,7.53279783 L59.9153391,9.03658525 L3.42139534,9.03658525 L3.42139534,7.53343801 Z" id="Shape" stroke="#3D3D3D" stroke-width="0.4" fill="#3D3D3D" fill-rule="nonzero"></path>
                <path d="M34.1708447,43.0786708 C34.1708447,44.2265171 33.2369968,45.1573416 32.0854223,45.1573416 C30.9332056,45.1573416 30,44.2265171 30,43.0786708 C30,41.9308246 30.9332056,41 32.0854223,41 C33.2369968,41 34.1708447,41.9308246 34.1708447,43.0786708" id="Shape" stroke="#3D3D3D" stroke-width="0.6" fill="#53AF80"></path>
                <path d="M31.2447959,54.840324 L31.2447959,55.4805059 L31.9223815,55.4805059 L31.9223815,54.840324 L23.7606877,54.840324 C24.7733448,54.2107042 25.4093952,53.1426261 25.7141845,51.752571 C25.9414947,50.7158757 25.9612422,49.6214418 25.8594862,48.6102447 C25.8470561,48.4867217 25.8337006,48.3757799 25.8202856,48.2789281 C25.8120888,48.2197501 25.8055665,48.1777259 25.8015815,48.1543705 L25.1684121,48.2617073 C25.1712974,48.2786168 25.176798,48.3140584 25.1840593,48.3664825 C25.1964078,48.4556343 25.2088157,48.5587042 25.2204315,48.6741365 C25.3160128,49.6239723 25.2974083,50.6550581 25.0867338,51.6158829 C24.6399638,53.6534706 23.4542442,54.840324 21.249926,54.840324 L21.249926,55.4805059 L31.9223815,55.4805059 L31.9223815,54.840324 L31.2447959,54.840324 L31.2447959,55.4805059 L42.0868084,55.4805059 L42.0868084,54.840324 C39.8813501,54.840324 38.67915,53.6506645 38.2070449,51.610059 C37.9806313,50.6314193 37.9523538,49.5829141 38.0408124,48.6263372 C38.0505073,48.5214979 38.0608604,48.4281528 38.0711603,48.3476308 C38.0772089,48.3003454 38.0817828,48.268503 38.0841683,48.2534275 L37.4497499,48.1536877 C37.4463951,48.1748883 37.4409237,48.2129783 37.4340567,48.2666625 C37.4228308,48.3544229 37.4116581,48.4551582 37.4012622,48.5675777 C37.3070652,49.5862098 37.3370668,50.6986453 37.5812088,51.7539136 C37.9027062,53.1435391 38.5507302,54.2109965 39.5696727,54.840324 L31.2447959,54.840324 Z" id="Shape" stroke="#3D3D3D" stroke-width="0.4" fill="#3D3D3D" fill-rule="nonzero"></path>
                <g id="Rectangle-7">
                    <use fill="#53AF80" fill-rule="evenodd" xlink:href="#path-3"></use>
                    <rect stroke="#3D3D3D" stroke-width="0.8" x="8.31208791" y="24.2235294" width="9.74945055" height="9.78823529" rx="1"></rect>
                </g>
                <rect id="Rectangle-7-Copy" stroke="#DBDBDB" stroke-width="0.8" x="22.378022" y="24.2235294" width="9.74945055" height="9.78823529" rx="1"></rect>
                <rect id="Rectangle-7-Copy-2" stroke="#DBDBDB" stroke-width="0.8" x="36.443956" y="24.2235294" width="9.74945055" height="9.78823529" rx="1"></rect>
                <rect id="Rectangle-8" stroke="#3D3D3D" stroke-width="0.8" x="8.31208791" y="13.6352941" width="19.4197802" height="5.37647059" rx="1"></rect>
                <path d="M42.4585584,3.38534397 L42.4585584,5.19639664 L43.6952878,5.19639664 L43.6952878,3.38534397 L42.4585584,3.38534397 Z M42.4585584,7.61113354 L42.4585584,9.42218621 L43.6952878,9.42218621 L43.6952878,7.61113354 L42.4585584,7.61113354 Z M42.4585584,11.8369231 L42.4585584,13.6479758 L43.6952878,13.6479758 L43.6952878,11.8369231 L42.4585584,11.8369231 Z M42.4585584,16.0627127 L42.4585584,17.8737654 L43.6952878,17.8737654 L43.6952878,16.0627127 L42.4585584,16.0627127 Z M42.4585584,20.2885023 L42.4585584,22.0995549 L43.6952878,22.0995549 L43.6952878,20.2885023 L42.4585584,20.2885023 Z M42.4585584,24.5142918 L42.4585584,26.3253445 L43.6952878,26.3253445 L43.6952878,24.5142918 L42.4585584,24.5142918 Z" id="Shape" fill="#3D3D3D" fill-rule="nonzero" transform="translate(43.076923, 14.855344) rotate(-90.000000) translate(-43.076923, -14.855344) "></path>
                <path d="M38.2480321,10.1407619 L38.2480321,11.9519074 L39.4847614,11.9519074 L39.4847614,10.1407619 L38.2480321,10.1407619 Z M38.2480321,14.3667681 L38.2480321,16.1779136 L39.4847614,16.1779136 L39.4847614,14.3667681 L38.2480321,14.3667681 Z M38.2480321,18.5927743 L38.2480321,20.4039198 L39.4847614,20.4039198 L39.4847614,18.5927743 L38.2480321,18.5927743 Z M38.2480321,22.8187805 L38.2480321,24.629926 L39.4847614,24.629926 L39.4847614,22.8187805 L38.2480321,22.8187805 Z" id="Shape-Copy-2" fill="#3D3D3D" fill-rule="nonzero" transform="translate(38.866397, 17.385344) rotate(-90.000000) translate(-38.866397, -17.385344) "></path>
                <g id="Group-4" transform="translate(65.500000, 39.411765) rotate(-360.000000) translate(-65.500000, -39.411765) translate(51.000000, 19.411765)">
                    <rect id="Rectangle-9" fill="#EEEEEE" x="0.692296961" y="0.0205365349" width="27.2527473" height="39.9761624" rx="3"></rect>
                    <rect id="Rectangle-9" fill="#FFFFFF" x="2.27473064" y="2.94117647" width="23.7362637" height="30.5294104" rx="2"></rect>
                    <path d="M24.9937077,39.344004 C26.5196291,39.344004 27.769561,38.0981188 27.769561,36.5771376 L27.769561,3.41507202 C27.769561,1.89409084 26.5196291,0.648205599 24.9937077,0.648205599 L3.55181518,0.648205599 C2.02589384,0.648205599 0.775961965,1.89409084 0.775961965,3.41507202 L0.775961965,36.5771376 C0.775961965,38.0981188 2.02589384,39.344004 3.55181518,39.344004 L24.9937077,39.344004 Z M24.9937077,39.984186 L3.55181518,39.984186 C1.67118274,39.984186 0.133700694,38.4516815 0.133700694,36.5771376 L0.133700694,3.41507202 C0.133700694,1.5405281 1.67118274,0.00802364135 3.55181518,0.00802364135 L24.9937077,0.00802364135 C26.8743402,0.00802364135 28.4118222,1.5405281 28.4118222,3.41507202 L28.4118222,36.5771376 C28.4118222,38.4516815 26.8743402,39.984186 24.9937077,39.984186 Z" id="Shape" stroke="#3D3D3D" stroke-width="0.4" fill="#3D3D3D" fill-rule="nonzero"></path>
                    <path d="M24.1626217,33.0151652 C25.0882665,33.0151652 25.8389236,32.2671045 25.8389236,31.3442903 L25.8389236,4.56291827 C25.8389236,3.64066111 25.0881831,2.89268354 24.1626217,2.89268354 L4.38290127,2.89268354 C3.4569353,2.89268354 2.70659935,3.64042417 2.70659935,4.56291827 L2.70659935,31.3442903 C2.70659935,32.2673415 3.45685196,33.0151652 4.38290127,33.0151652 L24.1626217,33.0151652 Z M24.1626217,33.6553472 L4.38290127,33.6553472 C3.10214085,33.6553472 2.06433808,32.6209043 2.06433808,31.3442903 L2.06433808,4.56291827 C2.06433808,3.28682959 3.10225613,2.25250159 4.38290127,2.25250159 L24.1626217,2.25250159 C25.4428304,2.25250159 26.4811848,3.28703469 26.4811848,4.56291827 L26.4811848,31.3442903 C26.4811848,32.6206991 25.4429457,33.6553472 24.1626217,33.6553472 Z" id="Shape" stroke="#3D3D3D" stroke-width="0.4" fill="#3D3D3D" fill-rule="nonzero"></path>
                    <g id="Rectangle-6">
                        <use fill="#53AF80" fill-rule="evenodd" xlink:href="#path-4"></use>
                        <rect stroke="#3D3D3D" stroke-width="0.7" x="6.28010867" y="7.70294118" width="16.0032967" height="8.12352941" rx="1"></rect>
                    </g>
                    <path d="M16,36.5 C16,37.328303 15.328303,38 14.5,38 C13.671235,38 13,37.328303 13,36.5 C13,35.671697 13.671235,35 14.5,35 C15.328303,35 16,35.671697 16,36.5" id="Shape-Copy" stroke="#3D3D3D" stroke-width="0.5" fill="#53AF80"></path>
                </g>
                <rect id="Rectangle-5" fill="#DBDBDB" x="57" y="40" width="14" height="1.79999995" rx="0.899999976"></rect>
                <rect id="Rectangle-5-Copy" fill="#DBDBDB" x="57" y="45" width="11" height="1.79999995" rx="0.899999976"></rect>
            </g>
        </g>
    </g>
</svg>