<?xml version="1.0" encoding="UTF-8"?>
<svg width="83px" height="60px" viewBox="0 0 83 60" version="1.1" xmlns="http://www.w3.org/2000/svg" xmlns:xlink="http://www.w3.org/1999/xlink">
    <!-- Generator: Sketch 43.1 (39012) - http://www.bohemiancoding.com/sketch -->
    <title>Group 11@2x</title>
    <desc>Created with Sketch.</desc>
    <defs></defs>
    <g id="Page-1" stroke="none" stroke-width="1" fill="none" fill-rule="evenodd">
        <g id="Desktop-HD-Copy" transform="translate(-679.000000, -1058.000000)">
            <g id="Group-11" transform="translate(679.000000, 1058.000000)">
                <path d="M81.5689655,55.6428571 L81.5689655,24.3571429 C81.5689655,22.751632 80.2436238,21.4285714 78.6353448,21.4285714 L14.3818966,21.4285714 C12.7736175,21.4285714 11.4482759,22.751632 11.4482759,24.3571429 L11.4482759,55.6428571 C11.4482759,57.248368 12.7736175,58.5714286 14.3818966,58.5714286 L78.6353448,58.5714286 C80.2436238,58.5714286 81.5689655,57.248368 81.5689655,55.6428571 Z M83,55.6428571 C83,58.0373462 81.0339624,60 78.6353448,60 L14.3818966,60 C11.983279,60 10.0172414,58.0373462 10.0172414,55.6428571 L10.0172414,24.3571429 C10.0172414,21.9626538 11.983279,20 14.3818966,20 L78.6353448,20 C81.0339624,20 83,21.9626538 83,24.3571429 L83,55.6428571 Z" id="Shape-Copy-4" fill="#3D3D3D" fill-rule="nonzero"></path>
                <path d="M15.0258621,27.8571429 L77.9913793,27.8571429 C78.3865486,27.8571429 78.7068966,27.5373462 78.7068966,27.1428571 C78.7068966,26.748368 78.3865486,26.4285714 77.9913793,26.4285714 L15.0258621,26.4285714 C14.6306928,26.4285714 14.3103448,26.748368 14.3103448,27.1428571 C14.3103448,27.5373462 14.6306928,27.8571429 15.0258621,27.8571429 Z" id="Shape-Copy-5" fill="#3D3D3D" fill-rule="nonzero"></path>
                <rect id="Rectangle-path-Copy" fill="#EEEEEE" x="19.3189655" y="0.714285714" width="25.7586207" height="26.4285714"></rect>
                <path d="M20.7497906,1.42857143 C20.3527203,1.42857143 20.0344828,1.74728415 20.0344828,2.14457116 L20.0344828,26.4285714 L44.362069,26.4285714 L44.362069,1.42857143 L20.7497906,1.42857143 Z M18.6034483,2.14457116 C18.6034483,0.959332211 19.56135,0 20.7497906,0 L45.7931034,0 L45.7931034,27.8571429 L18.6034483,27.8571429 L18.6034483,2.14457116 Z" id="Rectangle-path-Copy-2" fill="#3D3D3D" fill-rule="nonzero"></path>
                <rect id="Rectangle-path-Copy-3" fill="#EEEEEE" x="22.8965517" y="0.714285714" width="24.3275862" height="26.4285714"></rect>
                <path d="M24.3275293,1.42857143 C23.9311639,1.42857143 23.612069,1.74789292 23.612069,2.14457116 L23.612069,26.4285714 L46.5086207,26.4285714 L46.5086207,1.42857143 L24.3275293,1.42857143 Z M22.1810345,2.14457116 C22.1810345,0.95969155 23.1400451,0 24.3275293,0 L47.9396552,0 L47.9396552,27.8571429 L22.1810345,27.8571429 L22.1810345,2.14457116 Z" id="Rectangle-path-Copy-4" fill="#3D3D3D" fill-rule="nonzero"></path>
                <rect id="Rectangle-path-Copy-5" fill="#53AF80" x="26.4741379" y="0.714285714" width="25.0431034" height="26.4285714"></rect>
                <rect id="Rectangle-path-Copy-6" fill="#EFF5F1" x="29.3362069" y="4.28571429" width="17.887931" height="22.8571429"></rect>
                <path d="M50.8017241,2.14457116 C50.8017241,1.7494464 50.4794583,1.42857143 50.0808683,1.42857143 L27.9105111,1.42857143 C27.5126405,1.42857143 27.1896552,1.75001377 27.1896552,2.14457116 L27.1896552,26.4285714 L50.8017241,26.4285714 L50.8017241,2.14457116 Z M25.7586207,2.14457116 C25.7586207,0.960053335 26.7232826,0 27.9105111,0 L50.0808683,0 C51.2689643,0 52.2327586,0.959634682 52.2327586,2.14457116 L52.2327586,27.8571429 L25.7586207,27.8571429 L25.7586207,2.14457116 Z" id="Rectangle-path-Copy-7" fill="#3D3D3D" fill-rule="nonzero"></path>
                <path d="M47.5818966,10.3571429 C44.2189655,10.3571429 41.5,7.85714286 41.5,4.28571429 L47.8681034,4.28571429 L47.5818966,10.3571429 L47.5818966,10.3571429 Z" id="Shape-Copy-6" fill="#53AF80"></path>
                <path d="M35.8474138,4.28571429 C35.8474138,7.85714286 32.9137931,10.7142857 29.3362069,10.7142857 L29.3362069,4.28571429 L35.8474138,4.28571429 L35.8474138,4.28571429 Z" id="Shape-Copy-7" fill="#53AF80"></path>
                <path d="M44.5608342,27.0096942 C45.1173481,26.0775532 45.395605,25.0122493 45.395605,23.8803639 C45.395605,20.2183816 42.2652146,17.2222143 38.4391818,17.2222143 C34.6131491,17.2222143 31.4827586,20.2183816 31.4827586,23.8803639 C31.4827586,25.0788308 31.8305798,26.2107162 32.3870936,27.1428571" id="Shape" fill="#53AF80"></path>
                <path d="M44.881444,27.3659596 C45.4855812,26.3220962 45.7931034,25.126548 45.7931034,23.8542665 C45.7931034,19.766731 42.4121665,16.4285714 38.2801724,16.4285714 C34.1481784,16.4285714 30.7672414,19.766731 30.7672414,23.8542665 C30.7672414,25.1448311 31.1174228,26.4125838 31.7468749,27.5001878 L32.9859699,26.7855265 C32.4805495,25.9122318 32.1982759,24.8903239 32.1982759,23.8542665 C32.1982759,20.5592517 34.9350113,17.8571429 38.2801724,17.8571429 C41.6253335,17.8571429 44.362069,20.5592517 44.362069,23.8542665 C44.362069,24.8806428 44.1180296,25.8293899 43.6423491,26.6512983 L44.881444,27.3659596 Z" id="Shape-Copy-8" fill="#3D3D3D" fill-rule="nonzero"></path>
                <path d="M46.5086207,5.71553094 C46.5086207,5.31763739 46.1893758,5 45.7905313,5 L30.7698136,5 C30.3700698,5 30.0517241,5.31830255 30.0517241,5.71553094 L30.0517241,26.4285714 L46.5086207,26.4285714 L46.5086207,5.71553094 Z M28.6206897,5.71553094 C28.6206897,4.5298315 29.5792223,3.57142857 30.7698136,3.57142857 L45.7905313,3.57142857 C46.978651,3.57142857 47.9396552,4.52759377 47.9396552,5.71553094 L47.9396552,27.8571429 L28.6206897,27.8571429 L28.6206897,5.71553094 Z" id="Rectangle-path-Copy-8" fill="#3D3D3D" fill-rule="nonzero"></path>
                <path d="M35.4181034,5 C35.4181034,7.96265375 33.0194859,10.3571429 30.0517241,10.3571429 L30.0517241,11.7857143 C33.8098244,11.7857143 36.8491379,8.75163196 36.8491379,5 L35.4181034,5 Z" id="Shape-Copy-9" fill="#3D3D3D" fill-rule="nonzero"></path>
                <path d="M40.7844828,5 C40.7844828,8.75163196 43.8237963,11.7857143 47.5818966,11.7857143 L47.5818966,10.3571429 C44.6141348,10.3571429 42.2155172,7.96265375 42.2155172,5 L40.7844828,5 Z" id="Shape-Copy-10" fill="#3D3D3D" fill-rule="nonzero"></path>
                <path d="M14.3103448,38.5714286 L38.3517241,38.5714286 C40.1816204,38.5714286 40.7844828,39.0127667 40.7844828,40.4285714 L40.7844828,55.7142857 C40.7844828,56.1087748 41.1048307,56.4285714 41.5,56.4285714 C41.8951693,56.4285714 42.2155172,56.1087748 42.2155172,55.7142857 L42.2155172,40.4285714 C42.2155172,38.1110428 40.8929877,37.1428571 38.3517241,37.1428571 L14.3103448,37.1428571 C13.9151756,37.1428571 13.5948276,37.4626538 13.5948276,37.8571429 C13.5948276,38.251632 13.9151756,38.5714286 14.3103448,38.5714286 Z" id="Shape-Copy-11" fill="#3D3D3D" fill-rule="nonzero"></path>
                <path d="M45.0775862,29.2857143 L45.0775862,31.4285714 L46.5086207,31.4285714 L46.5086207,29.2857143 L45.0775862,29.2857143 Z M45.0775862,34.2857143 L45.0775862,36.4285714 L46.5086207,36.4285714 L46.5086207,34.2857143 L45.0775862,34.2857143 Z M45.0775862,39.2857143 L45.0775862,41.4285714 L46.5086207,41.4285714 L46.5086207,39.2857143 L45.0775862,39.2857143 Z M45.0775862,44.2857143 L45.0775862,46.4285714 L46.5086207,46.4285714 L46.5086207,44.2857143 L45.0775862,44.2857143 Z M45.0775862,49.2857143 L45.0775862,51.4285714 L46.5086207,51.4285714 L46.5086207,49.2857143 L45.0775862,49.2857143 Z M45.0775862,54.2857143 L45.0775862,56.4285714 L46.5086207,56.4285714 L46.5086207,54.2857143 L45.0775862,54.2857143 Z" id="Shape-Copy-12" fill="#3D3D3D" fill-rule="nonzero"></path>
                <path d="M4.00689655,43.5714286 C2.21810345,43.5714286 0.715517241,42.5 0.715517241,40.7142857 C0.715517241,38.9285714 2.00344828,37.8571429 3.79224138,37.8571429 L9.73103448,37.8571429 L9.73103448,43.6428571 L4.00689655,43.5714286 L4.00689655,43.5714286 Z" id="Shape-Copy-13" fill="#E2E2E2"></path>
                <path d="M3.79224138,38.5714286 C2.33426072,38.5714286 1.43103448,39.3844112 1.43103448,40.7142857 C1.43103448,41.9909974 2.48797629,42.8571429 4.00689655,42.8571429 L9.01551724,42.9195871 L9.01551724,38.5714286 L3.79224138,38.5714286 Z M0,40.7142857 C0,38.5605537 1.5750653,37.1428571 3.79224138,37.1428571 L10.4465517,37.1428571 L10.4465517,44.3661272 L4.00226247,44.2857123 C1.75068697,44.2837444 0,42.8476245 0,40.7142857 Z" id="Shape-Copy-14" fill="#3D3D3D" fill-rule="nonzero"></path>
                <ellipse id="Oval-Copy" fill="#3D3D3D" cx="3.50603448" cy="40.6428571" rx="1.35948276" ry="1.35714286"></ellipse>
                <rect id="Rectangle-4" fill="#FFFFFF" x="54.3793103" y="12.8571429" width="19.3189655" height="14.2857143" rx="1"></rect>
                <path d="M72.9827586,14.2791394 C72.9827586,13.8924524 72.6592852,13.5714286 72.2619967,13.5714286 L55.8155895,13.5714286 C55.4160502,13.5714286 55.0948276,13.8894978 55.0948276,14.2791394 L55.0948276,26.4285714 L72.9827586,26.4285714 L72.9827586,14.2791394 Z M53.6637931,14.2791394 C53.6637931,13.097904 54.6283084,12.1428571 55.8155895,12.1428571 L72.2619967,12.1428571 C73.4477465,12.1428571 74.4137931,13.101588 74.4137931,14.2791394 L74.4137931,27.8571429 L53.6637931,27.8571429 L53.6637931,14.2791394 Z" id="Rectangle-path-Copy-9" fill="#3D3D3D" fill-rule="nonzero"></path>
                <path d="M58.6724138,18.6571428 L69.4051724,18.6571428 C69.8003417,18.6571428 70.1206897,18.2541991 70.1206897,17.7571428 C70.1206897,17.2600866 69.8003417,16.8571429 69.4051724,16.8571429 L58.6724138,16.8571429 C58.2772445,16.8571429 57.9568966,17.2600866 57.9568966,17.7571428 C57.9568966,18.2541991 58.2772445,18.6571428 58.6724138,18.6571428 Z" id="Shape-Copy-15" fill="#DBDBDB" fill-rule="nonzero"></path>
                <path d="M58.6724138,23.2285714 L69.4051724,23.2285714 C69.8003417,23.2285714 70.1206897,22.8256277 70.1206897,22.3285714 C70.1206897,21.8315151 69.8003417,21.4285714 69.4051724,21.4285714 L58.6724138,21.4285714 C58.2772445,21.4285714 57.9568966,21.8315151 57.9568966,22.3285714 C57.9568966,22.8256277 58.2772445,23.2285714 58.6724138,23.2285714 Z" id="Shape-Copy-16" fill="#DBDBDB" fill-rule="nonzero"></path>
                <path d="M34.487931,30.7142857 L22.1810345,30.7142857 C21.3224138,30.7142857 20.75,31.4285714 20.75,32.2857143 L20.75,37.8571429 L35.7758621,37.8571429 L35.7758621,32.2857143 C35.7758621,31.4285714 35.3465517,30.7142857 34.487931,30.7142857 L34.487931,30.7142857 Z" id="Shape-Copy-17" fill="#EFF5F1"></path>
                <path d="M34.3448276,30 C35.5270658,30 36.4913793,30.9626538 36.4913793,32.1428571 L36.4913793,38.5714286 L20.0344828,38.5714286 L20.0344828,32.1428571 C20.0344828,30.9626538 20.9987963,30 22.1810345,30 L34.3448276,30 Z M35.0603448,32.1428571 C35.0603448,31.751632 34.7367273,31.4285714 34.3448276,31.4285714 L22.1810345,31.4285714 C21.7891348,31.4285714 21.4655172,31.751632 21.4655172,32.1428571 L21.4655172,37.1428571 L35.0603448,37.1428571 L35.0603448,32.1428571 Z" id="Shape-Copy-18" fill="#3D3D3D" fill-rule="nonzero"></path>
                <rect id="Rectangle-path-Copy-10" fill="#3D3D3D" x="23.612069" y="30.7142857" width="4.29310345" height="7.85714286"></rect>
            </g>
        </g>
    </g>
</svg>