<?xml version="1.0" encoding="UTF-8"?>
<svg width="74px" height="61px" viewBox="0 0 74 61" version="1.1" xmlns="http://www.w3.org/2000/svg" xmlns:xlink="http://www.w3.org/1999/xlink">
    <!-- Generator: Sketch 43.1 (39012) - http://www.bohemiancoding.com/sketch -->
    <title>Group 6@2x</title>
    <desc>Created with Sketch.</desc>
    <defs></defs>
    <g id="Page-1" stroke="none" stroke-width="1" fill="none" fill-rule="evenodd">
        <g id="Desktop-HD-Copy" transform="translate(-1079.000000, -1058.000000)">
            <g id="Group-6" transform="translate(1079.000000, 1058.000000)">
                <g id="Group-7">
                    <polygon id="Shape" fill="#FFFFFF" points="21.6138211 58.9380531 63.9430894 58.9380531 63.9430894 4.77876106 21.6138211 4.77876106 11.203252 0.318584071 0.792682927 4.77876106 0.845528455 58.9911504 11.203252 54.4778761"></polygon>
                    <polygon id="Shape" fill="#EBEBEB" points="11.097561 0.318584071 11.097561 54.4778761 21.6666667 58.9911504 21.6666667 4.77876106"></polygon>
                    <path d="M1.05691057,17.5221239 C1.05691057,18.0530973 2.06097561,17.5221239 2.06097561,17.5221239 C2.06097561,17.5221239 2.80081301,17.0442478 3.43495935,16.300885 C4.06910569,15.5575221 4.06910569,16.0353982 4.54471545,15.5575221 C5.0203252,15.079646 5.0203252,14.8141593 5.65447154,14.3362832 C6.28861789,13.8053097 6.5,13.7522124 7.50406504,13.3274336 C8.50813008,12.9026549 8.13821138,12.5840708 8.87804878,12.0530973 C9.61788618,11.5221239 10.2520325,12.9557522 11.203252,13.2212389 C12.2073171,13.4867257 11.9430894,13.8584071 12.6300813,14.3362832 C13.3170732,14.8141593 14.3739837,14.7079646 15.1666667,14.8672566 C15.9065041,14.9734513 17.3861789,16.2477876 18.2845528,16.3539823 C19.1829268,16.460177 20.7682927,15.3451327 21.6138211,14.7610619 C22.4593496,14.1238938 23.8333333,11.8938053 23.9390244,11.2566372 C23.9390244,11.2566372 25.6829268,8.28318584 25.8943089,7.80530973 L27.4796748,4.83185841 L23.0406504,4.83185841 L22.5650407,7.80530973 C22.300813,8.28318584 21.5609756,10.6725664 21.5609756,10.6725664 C21.5609756,10.6725664 20.4512195,11.7876106 19.9756098,12.0530973 C19.5,12.3185841 18.601626,12.9026549 17.4918699,13.1681416 C16.3821138,13.4336283 15.9065041,12.7964602 15.2723577,12.5309735 C14.6382114,12.2654867 13.4227642,11.3097345 12.6300813,10.9380531 C11.8373984,10.5663717 11.203252,9.55752212 11.203252,9.07964602 C11.203252,8.60176991 9.82926829,8.60176991 9.35365854,8.65486726 C8.87804878,8.7079646 7.9796748,9.34513274 7.50406504,9.71681416 C7.02845528,10.0884956 5.54878049,10.460177 5.17886179,10.8318584 C4.80894309,11.2035398 3.32926829,12.7964602 2.95934959,13.8053097 C2.58943089,14.8141593 1.1097561,14.4424779 1.1097561,13.8053097 C1.05691057,13.1150442 1.05691057,17.5221239 1.05691057,17.5221239 L1.05691057,17.5221239 Z" id="Shape" fill="#DBDBDB"></path>
                    <path d="M2.06097561,34.9380531 C3.27642276,34.5132743 5.7601626,37.8584071 6.76422764,38.6017699 C7.76829268,39.3451327 11.203252,43.2212389 11.203252,43.2212389 C11.203252,43.2212389 13.1585366,43.3274336 14.1626016,44.9734513 C15.1666667,46.5663717 18.3902439,45.3451327 19.1300813,45.7168142 C19.8699187,46.0884956 21.6138211,48.0530973 21.6138211,48.0530973 C21.6138211,48.0530973 25.3130081,44.3362832 27.0569106,43.2212389 C28.800813,42.1061947 29.5406504,41.6283186 30.7560976,41.2566372 C31.9715447,40.8849558 35.9349593,40.619469 36.9390244,41.2566372 C37.9430894,41.8938053 41.9065041,42.3716814 42.6463415,41.4690265 C43.3861789,40.619469 47.8252033,42.3185841 49.6747967,43.0619469 C51.5243902,43.8053097 52.5284553,44.8141593 53.2682927,45.6637168 C54.0081301,46.5663717 62.304878,50.9734513 62.304878,50.9734513 C62.8861789,51.2920354 63.9430894,52.9380531 63.9430894,52.9380531 L63.9430894,43.9646018 C63.9430894,43.5929204 62.9390244,43.3274336 62.304878,42.9557522 C62.304878,42.9557522 59.398374,39.9823009 57.9186992,38.9734513 C56.4390244,37.9646018 55.2235772,36.2123894 53.4796748,34.8318584 C51.7357724,33.3982301 48.7764228,34.7787611 45.8170732,34.8318584 C42.8577236,34.8849558 40.8495935,34.0353982 39.1585366,30.9557522 C37.4146341,27.8761062 36.9390244,27.5575221 36.9390244,25.3274336 C36.9390244,23.0973451 38.4186992,21.8230088 39.6869919,19.699115 C40.902439,17.5221239 40.4268293,17.1504425 40.6910569,14.4955752 C40.9552846,11.840708 43.6504065,8.44247788 43.6504065,8.44247788 C44.2845528,7.59292035 47.7195122,4.72566372 47.7195122,4.72566372 L33.9268293,4.72566372 L33.7682927,7.69911504 C33.7682927,9.18584071 32.7642276,15.5044248 32.0243902,16.9380531 C31.2845528,18.3716814 30.2804878,17.7876106 30.5447154,20.6017699 C30.8089431,23.3628319 31.495935,24 32.1300813,26.6548673 C32.7642276,29.3097345 33.2398374,31.3274336 33.7682927,32.3362832 C34.296748,33.3451327 33.504065,35.6283186 33.7682927,36.1061947 C34.0325203,36.5840708 32.6585366,37.8053097 32.2357724,38.5486726 C31.8130081,39.2920354 26.9512195,39.7699115 27.1097561,40.4070796 C27.2682927,41.0442478 24.995935,42.9026549 24.5203252,43.0088496 C24.0447154,43.1150442 21.6666667,44.6017699 21.6666667,44.6017699 C21.6666667,44.6017699 20.5569106,43.9646018 19.9227642,43.7522124 C19.2886179,43.4867257 19.0772358,43.4867257 18.4430894,43.8584071 C17.8089431,44.2300885 17.9674797,44.3362832 16.9634146,43.9646018 C15.9593496,43.5929204 15.9593496,43.9646018 15.2195122,42.9557522 C14.4796748,41.9469027 13.8455285,42.159292 13.2642276,41.7876106 C12.6300813,41.4690265 12.5243902,40.9380531 11.8902439,40.9380531 C11.2560976,40.9380531 9.40650407,38.4424779 8.93089431,37.9646018 C8.45528455,37.4867257 5.70731707,34.460177 5.07317073,34.2477876 C4.43902439,33.9823009 3.85772358,33.8761062 3.32926829,33.6106195 C2.85365854,33.3451327 1.37398374,32.9734513 1.37398374,32.9734513 C1.37398374,32.9734513 0.792682927,35.3628319 2.06097561,34.9380531 L2.06097561,34.9380531 Z" id="Shape" fill="#DBDBDB"></path>
                    <path d="M61.8294921,4.24778761 C63.2905911,4.24778761 64.4715447,5.43515517 64.4715447,6.90186949 L64.4715447,56.8149447 C64.4715447,58.2801276 63.2883368,59.4690265 61.8294921,59.4690265 L21.505858,59.4690265 L12.941913,55.7999946 C11.9995803,55.3962731 10.41406,55.4005131 9.47745052,55.8086312 L2.99184313,58.6346697 C1.57228016,59.2532301 0.316518233,58.4221193 0.315001817,56.8664806 L0.266299503,6.90447103 C0.264948423,5.5184445 1.26196858,4.0004782 2.53134391,3.45664255 L9.05004114,0.663851577 C10.258191,0.146246634 12.1488273,0.146466948 13.3564629,0.663851577 L21.7217843,4.24778761 L61.8294921,4.24778761 Z M61.8294921,58.4070796 C62.7046107,58.4070796 63.4146341,57.6936411 63.4146341,56.8149447 L63.4146341,6.90186949 C63.4146341,6.02149477 62.7067187,5.30973451 61.8294921,5.30973451 L21.505858,5.30973451 L12.941913,1.64070259 C11.9990683,1.23676171 10.4078686,1.23657629 9.46459105,1.64070259 L2.94589382,4.43349356 C2.0664478,4.81027266 1.32227362,5.94328017 1.32320957,6.90343092 L1.37191188,56.8654405 C1.37268482,57.6583781 1.85038653,57.9745392 2.57132997,57.6603953 L9.05693736,54.8343568 C10.2598921,54.3101813 12.1473683,54.3051339 13.3564629,54.8231436 L21.7217843,58.4070796 L61.8294921,58.4070796 Z" id="Shape" fill="#3D3D3D" fill-rule="nonzero"></path>
                    <path d="M10.5691057,2.71681416 L10.5691057,5.37168142 L11.6260163,5.37168142 L11.6260163,2.71681416 L10.5691057,2.71681416 Z M10.5691057,8.02654867 L10.5691057,10.6814159 L11.6260163,10.6814159 L11.6260163,8.02654867 L10.5691057,8.02654867 Z M10.5691057,13.3362832 L10.5691057,15.9911504 L11.6260163,15.9911504 L11.6260163,13.3362832 L10.5691057,13.3362832 Z M10.5691057,18.6460177 L10.5691057,21.300885 L11.6260163,21.300885 L11.6260163,18.6460177 L10.5691057,18.6460177 Z M10.5691057,23.9557522 L10.5691057,26.6106195 L11.6260163,26.6106195 L11.6260163,23.9557522 L10.5691057,23.9557522 Z M10.5691057,29.2654867 L10.5691057,31.920354 L11.6260163,31.920354 L11.6260163,29.2654867 L10.5691057,29.2654867 Z M10.5691057,34.5752212 L10.5691057,37.2300885 L11.6260163,37.2300885 L11.6260163,34.5752212 L10.5691057,34.5752212 Z M10.5691057,39.8849558 L10.5691057,42.539823 L11.6260163,42.539823 L11.6260163,39.8849558 L10.5691057,39.8849558 Z M10.5691057,45.1946903 L10.5691057,47.8495575 L11.6260163,47.8495575 L11.6260163,45.1946903 L10.5691057,45.1946903 Z M10.5691057,50.5044248 L10.5691057,53.0973451 L11.6260163,53.0973451 L11.6260163,50.5044248 L10.5691057,50.5044248 Z" id="Shape" fill="#3D3D3D" fill-rule="nonzero"></path>
                    <path d="M21.1382114,5.96460177 L21.1382114,8.61949299 L22.195122,8.61949299 L22.195122,5.96460177 L21.1382114,5.96460177 Z M21.1382114,11.2743842 L21.1382114,13.9292754 L22.195122,13.9292754 L22.195122,11.2743842 L21.1382114,11.2743842 Z M21.1382114,16.5841667 L21.1382114,19.2390579 L22.195122,19.2390579 L22.195122,16.5841667 L21.1382114,16.5841667 Z M21.1382114,21.8939491 L21.1382114,24.5488403 L22.195122,24.5488403 L22.195122,21.8939491 L21.1382114,21.8939491 Z M21.1382114,27.2037315 L21.1382114,29.8586228 L22.195122,29.8586228 L22.195122,27.2037315 L21.1382114,27.2037315 Z M21.1382114,32.513514 L21.1382114,35.1684052 L22.195122,35.1684052 L22.195122,32.513514 L21.1382114,32.513514 Z M21.1382114,37.8232964 L21.1382114,40.4781876 L22.195122,40.4781876 L22.195122,37.8232964 L21.1382114,37.8232964 Z M21.1382114,43.1330789 L21.1382114,45.7879701 L22.195122,45.7879701 L22.195122,43.1330789 L21.1382114,43.1330789 Z M21.1382114,48.4428613 L21.1382114,51.0977525 L22.195122,51.0977525 L22.195122,48.4428613 L21.1382114,48.4428613 Z M21.1382114,53.7526438 L21.1382114,56.8146002 L22.195122,56.8146002 L22.195122,53.7526438 L21.1382114,53.7526438 Z" id="Shape" fill="#3D3D3D" fill-rule="nonzero"></path>
                    <path d="M46.6208679,4.3844276 C46.5695637,4.43584717 46.4757223,4.53191792 46.345396,4.66854422 C46.1295211,4.89485453 45.8893207,5.15347965 45.6308378,5.44034335 C44.8925794,6.25966097 44.154334,7.14248311 43.4642607,8.05676081 C42.6224879,9.17202498 41.9107533,10.2579675 41.3701607,11.2895325 C40.7153927,12.5389685 40.3282422,13.6763342 40.2592091,14.6855085 C40.2235612,15.2721067 40.2148773,15.6603189 40.2105872,16.4128349 C40.2064875,17.1319514 40.194997,17.4010139 40.1425864,17.7272182 C40.0498776,18.304239 39.8166755,18.876734 39.2886382,19.7677476 C39.0929584,20.1121115 38.884503,20.4428696 38.6366605,20.8087861 C38.5240074,20.9751079 37.6690572,22.1842623 37.4426863,22.5350152 C36.7075325,23.6741072 36.3577236,24.6263546 36.3577236,25.7909696 C36.3577236,26.7902252 36.4510056,27.4520642 36.6949176,28.1175171 C36.8550343,28.5543553 37.0726948,28.9820921 37.4545931,29.6371911 C37.4947083,29.7060037 38.3895959,31.2071562 38.7359891,31.8085107 C40.569283,34.9911927 42.7035095,36.1551647 46.1334622,36.0341669 C46.9573413,36.0051031 47.6781625,35.9115134 48.9948199,35.6928139 C51.9028251,35.2097883 52.8725478,35.2089587 53.7489936,35.9172664 C54.1915028,36.2748843 54.6233892,36.6669473 55.1123012,37.1462745 C55.3574782,37.3866449 56.5268519,38.5763822 56.8518756,38.8892968 C57.4192495,39.4355324 57.903716,39.8439989 58.4013125,40.1775175 C58.8954408,40.5087114 59.6725435,41.1255547 60.6466019,41.9487005 C60.7389581,42.0267477 60.8327416,42.1063625 60.9278537,42.1874496 C61.5262595,42.6976157 62.1525338,43.2447141 62.768578,43.7918755 C62.9842433,43.9834263 63.18319,44.1612717 63.3606814,44.3208229 C63.4670156,44.4164092 63.5424475,44.4845462 63.5822462,44.5206495 L64.2905149,43.7324271 C64.2495674,43.6952817 64.172954,43.6260774 64.0653903,43.529386 C63.8863852,43.3684741 63.6858763,43.1892322 63.4685739,42.9962274 C62.8475674,42.4446584 62.2161034,41.8930265 61.6116576,41.377711 C61.515398,41.2956456 61.4204475,41.2150401 61.3269012,41.1359871 C60.324194,40.2886313 59.5240419,39.6534919 58.9878327,39.2940929 C58.5495392,39.0003227 58.1094805,38.6292977 57.5830959,38.1225241 C57.2711547,37.8222046 56.1063672,36.6371334 55.8504199,36.3862038 C55.3391635,35.8849704 54.8832499,35.4710956 54.4114107,35.0897745 C53.1931444,34.1052213 52.0668417,34.1061849 48.8224371,34.6450871 C47.5487241,34.8566534 46.8614798,34.9458836 46.0963774,34.972874 C43.0533698,35.0802215 41.2867375,34.1167293 39.6507391,31.2765613 C39.2994296,30.666672 38.4026127,29.1622831 38.3665732,29.1004618 C38.0136638,28.4950897 37.8204398,28.1153745 37.6867071,27.7505184 C37.4910315,27.2166665 37.4146341,26.6746247 37.4146341,25.7909696 C37.4146341,24.8602137 37.695954,24.0944066 38.3294693,23.1127996 C38.541156,22.7847992 39.3863624,21.5894256 39.5104254,21.4062581 C39.7728988,21.0187405 39.9958444,20.6649906 40.2016776,20.3025652 C40.787555,19.3141298 41.0693707,18.6222918 41.1859885,17.896461 C41.2500907,17.4974877 41.2630633,17.1937216 41.2674804,16.4189178 C41.2716667,15.6846018 41.2799934,15.3123575 41.3138943,14.7542642 C41.3710095,13.919542 41.7132088,12.9142332 42.3053506,11.7843015 C42.8160008,10.8098727 43.497038,9.77076739 44.3063933,8.69845303 C44.9763964,7.8107664 45.6953758,6.95098322 46.4143421,6.153076 C46.6658879,5.87391102 46.8992855,5.62261063 47.1084345,5.4033513 C47.2331226,5.27263582 47.3214343,5.18222603 47.3672783,5.13627899 L46.6208679,4.3844276 Z" id="Shape" fill="#3D3D3D" fill-rule="nonzero"></path>
                    <path d="M20.8533634,46.531029 C20.7580026,46.4359426 20.6647418,46.344641 20.5739231,46.2575905 C20.0736978,45.7781203 19.6746495,45.4498467 19.3664137,45.2949944 C19.0025311,45.1121861 18.7814144,45.1211464 17.5209201,45.2550615 C17.0975188,45.3000437 16.8289093,45.3231252 16.5517277,45.3341622 C15.5215068,45.3751843 14.8953501,45.1966559 14.6090507,44.7424502 C14.2607022,44.1898052 13.7949661,43.7540598 13.2444233,43.4229755 C12.5977004,43.0340507 11.9565796,42.8411758 11.4610278,42.7695784 C11.4451117,42.7519849 11.4281021,42.7331919 11.410033,42.7132387 C11.262779,42.5506306 11.0980959,42.3694845 10.9199554,42.1744221 C10.4108748,41.6169831 9.895755,41.0594885 9.40622883,40.538773 C9.32746462,40.4550466 9.32746462,40.4550466 9.2485716,40.3714178 C8.22209315,39.2841205 7.47694556,38.539175 7.0886678,38.2357422 C6.89558754,38.0925714 5.44294223,36.6047382 5.11888429,36.295462 C4.62410302,35.8232499 4.16799558,35.4287046 3.72509167,35.1009988 C3.05822501,34.6075824 2.40276008,34.2517689 1.78517878,34.0114884 C1.40484012,33.8635112 1.1143697,33.786325 0.939271046,33.7575033 L0.768403306,34.8054807 C0.873825575,34.8228335 1.09387501,34.8813068 1.40353311,35.0017845 C1.93594642,35.208929 2.50890899,35.5199568 3.09838076,35.9561085 C3.50127349,36.2542099 3.92562811,36.6212881 4.39099435,37.065427 C4.65307003,37.3155482 6.18850938,38.888181 6.45074848,39.0823305 C6.76821805,39.3306556 7.49864644,40.0608858 8.48176194,41.1022509 C8.55986844,41.1850459 8.55986844,41.1850459 8.63789401,41.2679872 C9.12353049,41.7845651 9.6353206,42.3384562 10.1412118,42.8924028 C10.3183114,43.0863255 10.4820019,43.2663797 10.6282941,43.4279257 C10.7159689,43.5247423 10.7782848,43.5937898 10.8112563,43.6304321 L10.951746,43.7865627 L11.1605445,43.8035729 C11.243369,43.8103204 11.4082199,43.8359944 11.6264206,43.8915856 C11.9944124,43.9853392 12.3620961,44.129991 12.7016306,44.3341796 C13.1167721,44.5838365 13.4610663,44.9059602 13.7161525,45.3106471 C14.2614604,46.1757624 15.2228045,46.4498588 16.5935802,46.3952762 C16.899696,46.383087 17.1872382,46.3583787 17.6320544,46.3111213 C18.517564,46.2170447 18.8144939,46.2050123 18.8937489,46.2448286 C19.0767772,46.3367788 19.4194522,46.6186774 19.8443852,47.0259793 C19.929983,47.1080255 20.0182877,47.1944751 20.1088733,47.2848 C20.3662543,47.5414406 20.630272,47.8173799 20.8859159,48.0934324 C21.0392473,48.2590045 21.1552909,48.387354 21.2194374,48.4596185 L21.5918587,48.8791716 L21.9874955,48.4816496 C22.0266308,48.4423278 22.1012445,48.3678591 22.2068297,48.2632774 C22.383213,48.0885704 22.5815751,47.8937957 22.7974004,47.6839941 C23.4138699,47.0847303 24.046282,46.4855572 24.6582162,45.9270292 C24.8192277,45.7800699 24.976986,45.6376301 25.1310713,45.5001734 C26.0588018,44.6725625 26.8197246,44.0553599 27.3406253,43.7222981 C28.8922515,42.7301945 29.3163042,42.4743664 29.9045489,42.2004388 C30.2251971,42.0511228 30.544103,41.9295824 30.9099635,41.8177029 C32.2813444,41.3983373 35.9382339,41.302652 36.656833,41.7586667 C38.0614822,42.5762149 42.174897,42.8698171 43.0440446,41.8717724 C43.1792496,41.7071859 44.1726935,41.7957461 45.5970718,42.2112458 C46.7437645,42.5457429 47.9089393,42.9772114 49.4785334,43.6080407 C51.0006569,44.2197914 51.9740381,44.9729788 52.8603621,46.0543578 C53.2299029,46.4790632 55.0031636,47.6161622 57.9901024,49.4139984 C58.0954427,49.4774027 58.20192,49.5413922 58.3094927,49.6059438 C59.4828763,50.310061 60.7396936,51.0531485 61.9964588,51.788808 C62.4362866,52.0462654 62.8447118,52.2844164 63.2112824,52.4974509 C63.4313201,52.625327 63.5885821,52.7164562 63.6726129,52.7650262 L64.1996321,51.8445216 C64.1162983,51.7963545 63.9597517,51.7056399 63.7404573,51.5781958 C63.3748078,51.3656966 62.9673307,51.1280984 62.5284944,50.8712213 C61.2747906,50.1373538 60.021139,49.3961381 58.8514183,48.6942189 C58.7442463,48.6299077 58.6381733,48.5661612 58.5332414,48.5030028 C55.7749243,46.8427737 53.9090914,45.6463131 53.6659958,45.3671657 C52.6821842,44.1664712 51.5672621,43.3037616 49.8710601,42.6220478 C48.270931,41.9789462 47.0811299,41.5383586 45.8917493,41.1914091 C43.9705263,40.6309768 42.7792016,40.5247766 42.2384109,41.1845802 C41.7979731,41.6899757 38.2067644,41.4336469 37.2037997,40.8502161 C36.1765276,40.1978552 32.2402939,40.3008498 30.6022317,40.8017661 C30.1903658,40.9277139 29.8257926,41.0666588 29.4601226,41.2369402 C28.8116037,41.5389357 28.37089,41.8048152 26.7731959,42.8263744 C26.1922957,43.1977997 25.396454,43.8433258 24.4293568,44.7060551 C24.2721916,44.8462592 24.1114615,44.9913822 23.9475585,45.1409807 C23.3265558,45.7077858 22.6863673,46.3143266 22.062505,46.9207767 C21.9102254,47.0688062 21.7665004,47.2094796 21.6328494,47.3410971 C21.3766931,47.0651135 21.1126804,46.7896 20.8533634,46.531029 Z" id="Shape" fill="#3D3D3D" fill-rule="nonzero"></path>
                    <path d="M33.2073168,36.3288831 C33.1911421,36.3699004 33.1629716,36.4255264 33.1225684,36.4924897 C33.0121153,36.6755517 32.8512121,36.8853439 32.554848,37.2431 C32.0233282,37.8830829 31.8746071,38.0736893 31.7240992,38.3383333 C31.6759709,38.4229592 30.8963996,38.6751435 29.5125178,38.999722 C29.3665512,39.0339073 29.3665512,39.0339073 29.2206254,39.0680384 C29.0749964,39.1021553 29.0156118,39.1161145 28.9305011,39.1362755 C28.7119738,39.1880403 28.5332549,39.2315068 28.3683241,39.2733417 C26.826149,39.6645164 26.3632494,39.8615704 26.5442336,40.588957 C26.4972519,40.6061541 26.442442,40.695983 26.363313,40.8019912 C26.1981915,41.0232022 25.9457195,41.2909704 25.6436788,41.5680608 C25.1113144,42.0564488 24.4684934,42.5177946 24.3528416,42.5436175 C24.0860115,42.6031956 23.5902837,42.8614645 22.8173781,43.3101601 C22.742989,43.3534192 22.742989,43.3534192 22.6689035,43.3967771 C22.367381,43.5735034 22.0529614,43.7625141 21.743984,43.9514835 C21.6925383,43.9829475 21.6443855,44.012482 21.5999221,44.0398214 C21.4017123,43.9313243 21.1965252,43.8229061 20.994056,43.7211891 C20.9118579,43.6798942 20.8315438,43.6404425 20.7534608,43.6030829 C20.477606,43.4710975 20.2372434,43.3686396 20.0370309,43.3015841 C19.2732145,42.980277 18.889119,43.0043974 18.1239706,43.4528608 C18.0147657,43.5168671 17.7089302,43.7154983 17.6889689,43.723253 C17.6864328,43.7242383 17.5885527,43.70281 17.0932589,43.5194638 C16.9157637,43.4537592 16.754676,43.4044105 16.5939589,43.3642229 C16.532388,43.3488271 16.473624,43.3354022 16.4059565,43.3209228 C16.3822039,43.3158403 16.2848891,43.2954893 16.2618762,43.2905053 C16.1624425,43.2689702 16.1184705,43.2553753 16.0833381,43.2372509 C15.9881012,43.1881192 15.8516551,43.0478048 15.5921027,42.6938766 C15.098467,42.0207501 14.7061126,41.7942863 13.9424775,41.5696109 C13.7020527,41.4988735 13.5997081,41.4596341 13.4950968,41.3927461 C13.3335927,41.3084581 13.2369189,41.2387205 13.1265595,41.1386951 C13.0790407,41.095626 12.9113744,40.9329268 12.8839782,40.9073663 C12.5637646,40.6086081 12.2683101,40.460177 11.8373984,40.460177 C11.8677284,40.460177 11.7422304,40.3858298 11.5692062,40.2354899 C11.359217,40.0530312 11.1029579,39.7904718 10.8020854,39.4537002 C10.7085298,39.3489819 10.6110657,39.2375588 10.5082549,39.1179979 C10.3965742,38.9881219 9.40449859,37.7957477 9.2517231,37.6422442 C9.20523858,37.5955382 8.00540951,36.3237515 7.50878708,35.8137489 C7.43605177,35.7390539 7.36474224,35.6661969 7.29479641,35.5951324 C6.23151485,34.5148446 5.57933897,33.9284156 5.18743744,33.7971593 C4.96363376,33.7019297 4.27298528,33.4465565 3.26324601,33.0824327 C2.74504432,32.8956863 2.25359862,32.7198771 1.76217403,32.5449342 C1.59019196,32.4837101 1.43048927,32.4269646 1.28715298,32.376117 C1.13967859,32.3238321 1.13967859,32.3238321 1.10676826,32.3121882 L0.755726973,33.3138488 C0.788260923,33.3253596 0.788260923,33.3253596 0.935285766,33.3774851 C1.07826818,33.4282071 1.23760633,33.484823 1.40920671,33.5459113 C1.89944624,33.7204323 2.38966466,33.8958024 2.84706065,34.0606295 C3.89296261,34.4377865 4.58125549,34.6922887 4.81707317,34.7910143 C5.00217585,34.8545015 5.67357358,35.4582146 6.54330652,36.3418581 C6.61189373,36.4115423 6.68188228,36.4830496 6.75332571,36.5564179 C7.24034538,37.056559 8.44565237,38.3341521 8.50437447,38.393154 C8.61809604,38.5074175 9.5621828,39.642114 9.70850463,39.8122749 C9.81547549,39.9366738 9.91729702,40.0530783 10.0155753,40.1630828 C10.837713,41.0833151 11.3427322,41.5221239 11.8373984,41.5221239 C11.9613647,41.5221239 12.0226176,41.5528963 12.1648023,41.6855541 C12.179526,41.6992913 12.3547896,41.8693626 12.41863,41.9272251 C12.5879291,42.080671 12.7533803,42.2012521 12.9506975,42.3032169 C13.1530458,42.4294376 13.3266248,42.4949549 13.6454618,42.5887625 C14.20743,42.7541039 14.4085664,42.8701982 14.7412307,43.3238225 C15.0905982,43.8002235 15.3220865,44.0382745 15.6005891,44.181951 C15.7357355,44.2516716 15.8569142,44.2891365 16.0391736,44.3286098 C16.4638841,44.4205925 16.4837217,44.425553 16.7278793,44.5159344 C17.5015442,44.8023271 17.7193531,44.8500106 18.0701217,44.7137407 C18.2091637,44.6597244 18.6412616,44.3790896 18.6565172,44.3701481 C19.1342957,44.0901159 19.1707587,44.0878261 19.6666667,44.2954391 C19.8545453,44.359856 20.0588777,44.4469556 20.2990595,44.5618728 C20.3707936,44.5961947 20.4450527,44.6326722 20.5213912,44.6710233 C20.7149856,44.7682818 20.912903,44.8729452 21.1039399,44.9776437 C21.218378,45.0403619 21.3045604,45.088854 21.3516339,45.1158813 L21.6253437,45.2730322 L21.8930051,45.1056938 C21.9715421,45.0565934 22.1112915,44.9700481 22.2935214,44.858597 C22.5972695,44.6728259 22.9062313,44.487096 23.2014501,44.3140645 C23.2737229,44.2717674 23.2737229,44.2717674 23.3461268,44.2296629 C23.9824354,43.860266 24.4731574,43.6046051 24.5821177,43.5802763 C25.3830934,43.4014335 27.3478746,41.65442 27.5655497,40.638926 C27.8484016,40.5163936 28.1698685,40.4189436 28.6270233,40.3029857 C28.7857911,40.262714 28.9594547,40.220477 29.1730261,40.1698861 C29.2570655,40.1499789 29.3156227,40.1362142 29.4604348,40.1022885 C29.6060663,40.0682263 29.6060663,40.0682263 29.7527734,40.0338676 C31.7329545,39.5694318 32.3558451,39.3679322 32.6417545,38.8652065 C32.7473211,38.6795847 32.8859884,38.5018635 33.3112746,37.9898531 C34.2492231,36.8577113 34.4876528,36.4625443 34.1774002,35.9014285 C34.1708917,35.8896575 34.1954156,35.5755345 34.3040354,34.7963279 C34.3421247,34.5230862 34.366773,34.3294417 34.3869802,34.1326276 C34.4767199,33.2585796 34.4393954,32.6313883 34.1830869,32.1420815 C34.0682123,31.9227799 33.9493643,31.6350826 33.8248957,31.2751292 C33.5094596,30.3629132 33.2805181,29.4703178 32.591099,26.5840498 C32.5217428,26.2936888 32.4493303,26.0165966 32.372788,25.7465989 C32.2619272,25.355545 32.1467915,24.9931306 32.006333,24.5833141 C31.9448096,24.4038071 31.7183957,23.7614318 31.6674552,23.6127348 C31.3121012,22.5754459 31.1320932,21.7973249 31.0178991,20.6040465 C30.8896385,19.237997 31.0077285,18.8611438 31.4753073,18.420737 C31.4901487,18.406758 31.65125,18.2575367 31.7031883,18.2078835 C31.8029396,18.1125208 31.8877104,18.0253202 31.9702882,17.9308116 C32.1490981,17.7261675 32.3031827,17.50201 32.4406833,17.2355666 C33.1200416,15.8705038 34.3799126,7.10731032 34.3799126,5.00146916 L33.323002,5.00146916 C33.323002,6.9553705 32.0830967,15.5796907 31.4988799,16.7536919 C31.4050726,16.9353434 31.2996205,17.0887519 31.1760339,17.2301942 C31.1165512,17.2982709 31.0531201,17.3635201 30.9746502,17.4385377 C30.9300379,17.4811872 30.7729852,17.6266584 30.7524751,17.6459767 C30.0285247,18.3278569 29.8085051,19.0299918 29.9657507,20.7047377 C30.0885445,21.9878876 30.2871418,22.8463648 30.6680911,23.9583671 C30.7210536,24.1129665 30.9475004,24.7554351 31.007017,24.9290868 C31.1416706,25.3219662 31.2511611,25.6666113 31.3563096,26.0375156 C31.4288279,26.2933187 31.4974871,26.5560486 31.5633726,26.8318794 C32.2635077,29.7630103 32.4943577,30.6630466 32.8265271,31.623654 C32.9670035,32.0299006 33.1051984,32.3644312 33.2478074,32.6366795 C33.3776579,32.8845711 33.405157,33.3466593 33.335649,34.0236549 C33.3170389,34.2049141 33.2938,34.3874858 33.2573417,34.649027 C33.093067,35.8274849 33.0695419,36.0446812 33.2073168,36.3288831 Z" id="Shape" fill="#3D3D3D" fill-rule="nonzero"></path>
                    <path d="M12.3409034,11.3067755 C12.6049221,11.4307852 12.902077,11.6157227 13.4340794,11.9742038 C13.4679167,11.9970136 13.4679167,11.9970136 13.5018268,12.0198994 C14.4089574,12.6322341 14.6935391,12.8083141 15.0524,12.9285044 C15.1320753,12.9551894 15.2187945,12.9956249 15.3335817,13.0587552 C15.3881818,13.088784 15.4439027,13.1208134 15.5679844,13.1925775 C16.262145,13.5911309 16.7704521,13.7304206 17.5379048,13.5835426 C18.0996171,13.4497297 18.6041022,13.2504106 19.1382013,12.9778295 C19.3876225,12.8505357 20.065682,12.4687496 20.1590966,12.4218197 C20.3796925,12.2992558 20.6372901,12.0969016 20.9581604,11.813581 C21.0072295,11.7702542 21.0574008,11.7253276 21.1085509,11.6789477 C21.2867095,11.5174043 21.4693106,11.345109 21.6468717,11.1729073 C21.7534497,11.0695461 21.8350388,10.9888151 21.8818044,10.9418266 L21.949751,10.8735562 L21.9894292,10.7856228 C22.0006692,10.7607094 22.0207896,10.715751 22.0490534,10.6520053 C22.0959387,10.5462609 22.1481261,10.4272989 22.2042997,10.2976685 C22.364821,9.92723791 22.5253666,9.54499835 22.6754868,9.17109597 C22.7258394,9.04568355 22.7742688,8.92303832 22.8205424,8.80360177 C23.0300499,8.26284308 23.1888174,7.805594 23.2843004,7.45196662 C23.3338033,7.26862934 23.376724,7.07439488 23.4136387,6.87052899 C23.4907515,6.44466351 23.5392283,5.99319393 23.5651964,5.53906926 C23.5817557,5.24948193 23.5867874,5.00753398 23.5856331,4.83757446 C23.5855423,4.82630697 22.5286781,4.83672247 22.5286781,4.83672247 C22.5321078,5.33965818 22.4931199,6.02147154 22.3737978,6.68044291 C22.3420168,6.8559572 22.3055302,7.02107439 22.2642618,7.17391487 C22.1806177,7.48369623 22.0326834,7.90974564 21.8356266,8.418368 C21.7909638,8.5336469 21.7441151,8.6522889 21.6953264,8.77380632 C21.5491381,9.13791541 21.3922104,9.51154136 21.2352582,9.87373557 C21.1662789,10.0329173 21.1086315,10.1638976 21.0665006,10.2585386 C21.025421,10.2991291 20.9734975,10.3500246 20.9128654,10.4088267 C20.7432032,10.5733679 20.5689191,10.7378156 20.4004583,10.8905656 C20.3526653,10.9339014 20.3059518,10.9757318 20.2604783,11.0158838 C19.9943702,11.2508507 19.7802887,11.4190211 19.6661237,11.4827483 C19.5642367,11.5333743 18.8822748,11.9173575 18.659563,12.0310201 C18.1942569,12.2684922 17.7646249,12.4382373 17.3166233,12.5454126 C16.8653152,12.6312258 16.5883714,12.5553357 16.0923589,12.2705494 C15.9717071,12.2007205 15.9058355,12.1628563 15.8410525,12.1272271 C15.6755803,12.0362213 15.5355777,11.9709408 15.3866244,11.9210531 C15.1635806,11.8463509 14.8806705,11.6713052 14.091223,11.1384094 C14.0570403,11.1153395 14.0570403,11.1153395 14.0227591,11.0922305 C13.444131,10.7023314 13.1187312,10.4998154 12.8007118,10.3506992 C12.2849139,10.0913546 11.6788618,9.26928562 11.6788618,8.97345133 C11.6788618,8.0399893 10.4831803,7.88243139 9.24245488,8.02094669 C8.70888508,8.08051473 7.94028202,8.55575507 7.12677935,9.1914944 C6.99832697,9.29187788 6.74309983,9.40571717 6.12908544,9.64530562 C5.27543669,9.97839941 4.99282297,10.1085818 4.75234194,10.3502088 C4.63082833,10.4723014 3.76618324,11.8770943 3.6546857,12.0480525 C3.51992688,12.254677 3.39357472,12.4407776 3.27371313,12.6080694 C3.00219081,12.9870352 2.77162566,13.257326 2.60420002,13.3915065 C2.48041637,13.4907109 2.32132838,13.5480445 2.10992012,13.5720707 C1.95524085,13.5896498 1.81097029,13.5892922 1.53107231,13.5764511 C1.20857551,13.5616557 1.10545259,13.5604524 0.951888505,13.5819653 C0.639384621,13.6257442 0.386123321,13.7753298 0.272555276,14.0850548 L1.26430003,14.4521756 C1.21822548,14.577831 1.13157042,14.6290127 1.09783792,14.6337383 C1.15887177,14.625188 1.23953207,14.6261292 1.48286377,14.6372928 C1.81633211,14.6525916 2.00202101,14.6530518 2.2287095,14.627289 C2.62358604,14.5824118 2.96809712,14.4582538 3.26325345,14.2217056 C3.52462532,14.0122334 3.80778922,13.6802812 4.13147446,13.2285112 C4.26114778,13.0475251 4.39600096,12.8489036 4.53869876,12.6301063 C4.75729215,12.294939 5.47975671,11.1211475 5.49969058,11.1011186 C5.58288841,11.0175244 5.86509431,10.8875298 6.51169708,10.6352254 C7.25505312,10.3451678 7.52758766,10.2236088 7.77565967,10.0297445 C8.41401836,9.53087744 9.10274507,9.105026 9.35917113,9.07639844 C9.61575917,9.04775281 10.0266892,9.04775281 10.3352462,9.08841214 C10.4607241,9.10494667 10.5643665,9.12736085 10.6369633,9.15161813 C10.7547406,9.8860796 11.5466335,10.9077482 12.3409034,11.3067755 Z" id="Shape" fill="#3D3D3D" fill-rule="nonzero"></path>
                    <path d="M26.7907802,4.47008174 C26.7860048,4.47871831 26.0003162,6.46731629 25.5838691,7.33410404 C25.5230241,7.460746 25.4621194,7.58386772 25.4011229,7.70336824 C24.2842259,9.89152213 23.9948546,10.4036249 23.5684697,10.8249763 C23.3882036,11.0031144 23.2090928,11.2636078 22.981,11.6535481 C22.8970608,11.7970481 22.8098839,11.9520421 22.6905063,12.1685053 C22.6552894,12.2323627 22.6165584,12.3028373 22.5419143,12.4387064 C22.4809083,12.5496635 22.4359632,12.6310641 22.3914512,12.711042 C22.0295383,13.361317 21.7736134,13.7682386 21.5328745,14.0506689 C21.4454,14.1532922 21.3657912,14.2311566 21.296748,14.2831858 C20.0630534,15.2128658 18.8594922,15.8689734 18.3819411,15.7790059 C18.1281252,15.7311887 17.782218,15.55607 17.0419921,15.120154 C16.0413384,14.5307184 15.6776148,14.3469379 15.2365093,14.2878436 C15.066327,14.2633926 14.910788,14.250635 14.5947049,14.231091 C14.2541903,14.2100364 14.1311442,14.2008444 13.9601194,14.180628 C13.505942,14.1269408 13.1820355,14.0268023 12.9372397,13.851115 C12.7478635,13.7193138 12.7018318,13.6688002 12.4917475,13.3947765 C12.2026314,13.0176676 11.9191852,12.8168816 11.3446898,12.6565392 C11.1506431,12.6023804 10.9474679,12.4573865 10.612539,12.1465229 C9.99895577,11.5770268 9.91530695,11.508109 9.590988,11.3964702 C9.23195296,11.2728814 8.86837786,11.3323695 8.55155772,11.5824858 C8.22702594,11.814717 8.09029422,11.9885345 7.87293557,12.3630748 C7.74629757,12.5812903 7.67335446,12.6458065 7.32137522,12.776101 C6.240745,13.1761251 5.98759995,13.3130835 5.31616272,13.8752807 C5.00449528,14.1362412 4.81131583,14.341954 4.61737805,14.6017699 C4.58504425,14.6453854 4.58504425,14.6453854 4.55433271,14.6876337 C4.32820204,14.9995942 4.29805943,15.0391662 4.15191773,15.2023196 C4.07448272,15.2790857 4.06876142,15.2820681 3.99720422,15.2974748 C3.63998082,15.3740434 3.40239345,15.5231707 3.03372619,15.955332 C2.86547176,16.1525642 2.52809172,16.3779941 2.0803653,16.5986845 C1.80578191,16.7340304 1.50857353,16.8590035 1.21099784,16.9697633 C1.03267022,17.0361382 0.895362852,17.0825096 0.82040114,17.1058867 L1.13369645,18.1201054 C1.22574289,18.0914004 1.3806998,18.0390684 1.57814052,17.9655795 C1.9068454,17.8432331 2.2359176,17.7048616 2.54586274,17.5520855 C3.11175117,17.2731513 3.55316833,16.9782062 3.83619251,16.6464379 C4.05902373,16.3852294 4.09570498,16.3622055 4.20965633,16.3377816 C4.48286736,16.2789629 4.67234536,16.1801939 4.91838976,15.9329771 C5.04035676,15.7979095 5.12901999,15.690068 5.2155196,15.5765091 C5.27212592,15.5021948 5.32230679,15.433057 5.40866712,15.3128307 C5.43619351,15.2749686 5.43619351,15.2749686 5.4629065,15.2389381 C5.6083361,15.0441079 5.74508288,14.8984891 5.99278037,14.6910909 C6.56206424,14.2144271 6.71144238,14.1336095 7.68675486,13.7725716 C8.27798712,13.5537112 8.5398391,13.3221103 8.78596538,12.8979993 C8.93458326,12.6419092 8.98872242,12.5730859 9.18520718,12.4320709 C9.23752249,12.3914757 9.22598096,12.3933642 9.24844289,12.4010961 C9.36162195,12.4400552 9.44674279,12.5101858 9.89537709,12.9265849 C10.3486398,13.3472798 10.6556695,13.5663885 11.0618142,13.679744 C11.4078678,13.7763281 11.5003761,13.8418586 11.654455,14.0428315 C11.6476565,14.0339639 11.7304944,14.1430003 11.7570394,14.1768957 C11.8045782,14.2375983 11.8491693,14.291039 11.8978228,14.3444297 C12.0207801,14.4793588 12.1592972,14.6015074 12.3292793,14.7197481 C12.7379821,15.0131403 13.2213132,15.1625662 13.8366286,15.2353012 C14.0342547,15.2586621 14.1687418,15.2687088 14.529787,15.2910329 C14.8175053,15.308823 14.954337,15.3200461 15.0919318,15.3397962 C15.3311721,15.3718703 15.6712279,15.543692 16.4805852,16.0204458 C17.3758462,16.5476637 17.7604525,16.7423742 18.1871646,16.822764 C19.0980359,16.9943662 20.4084914,16.2799864 21.9308943,15.1327434 C22.0678915,15.0295059 22.2013431,14.8989785 22.3356175,14.7414503 C22.6356177,14.3894958 22.9191174,13.9387302 23.3139242,13.2293524 C24.1701379,11.6909317 24.1299831,11.7595792 24.3095791,11.5821033 C24.8590728,11.0390963 25.1403979,10.541233 26.3415648,8.1879827 C26.4065341,8.06069893 26.4712166,7.92994034 26.5356792,7.79576867 C26.9802822,6.87037765 27.7503615,4.92128721 27.7146862,4.98580875 L26.7907802,4.47008174 Z" id="Shape" fill="#3D3D3D" fill-rule="nonzero"></path>
                    <path d="M52.2642276,29.0973451 C51.4715447,29.0973451 50.7845528,28.460177 50.7845528,27.6637168 C50.7845528,26.8672566 51.4715447,24.2123894 52.2642276,24.2123894 C53.0569106,24.2123894 53.7439024,26.8672566 53.7439024,27.6637168 C53.7439024,28.460177 53.0569106,29.0973451 52.2642276,29.0973451 Z" id="Shape" fill="#53AF80"></path>
                    <path d="M53.2154472,27.6637168 C53.2154472,26.7900303 52.4892263,24.7433628 52.2642276,24.7433628 C52.039229,24.7433628 51.3130081,26.7900303 51.3130081,27.6637168 C51.3130081,28.1511122 51.7474926,28.5663717 52.2642276,28.5663717 C52.7809626,28.5663717 53.2154472,28.1511122 53.2154472,27.6637168 Z M54.2723577,27.6637168 C54.2723577,28.749816 53.3531837,29.6283186 52.2642276,29.6283186 C51.1752716,29.6283186 50.2560976,28.749816 50.2560976,27.6637168 C50.2560976,26.2257262 51.1588975,23.6814159 52.2642276,23.6814159 C53.3695578,23.6814159 54.2723577,26.2257262 54.2723577,27.6637168 Z" id="Shape" fill="#3D3D3D" fill-rule="nonzero"></path>
                    <polygon id="Shape" fill="#3D3D3D" fill-rule="nonzero" points="51.7886179 27.6106195 51.7886179 30.2654867 52.8455285 30.2654867 52.8455285 27.6106195"></polygon>
                    <path d="M55.2764228,22.619469 C54.4308943,22.619469 53.796748,21.9823009 53.796748,21.1858407 C53.796748,20.3893805 54.4837398,17.7345133 55.2764228,17.7345133 C56.0691057,17.7345133 56.7560976,20.3893805 56.7560976,21.1858407 C56.7560976,21.9823009 56.0691057,22.619469 55.2764228,22.619469 Z" id="Shape" fill="#53AF80"></path>
                    <path d="M56.2276423,21.1858407 C56.2276423,20.3121542 55.5014214,18.2654867 55.2764228,18.2654867 C55.0514242,18.2654867 54.3252033,20.3121542 54.3252033,21.1858407 C54.3252033,21.6939662 54.7279297,22.0884956 55.2764228,22.0884956 C55.7931578,22.0884956 56.2276423,21.673236 56.2276423,21.1858407 Z M57.2845528,21.1858407 C57.2845528,22.2719399 56.3653788,23.1504425 55.2764228,23.1504425 C54.150119,23.1504425 53.2682927,22.2865648 53.2682927,21.1858407 C53.2682927,19.7478501 54.1710926,17.2035398 55.2764228,17.2035398 C56.3817529,17.2035398 57.2845528,19.7478501 57.2845528,21.1858407 Z" id="Shape" fill="#3D3D3D" fill-rule="nonzero"></path>
                    <polygon id="Shape" fill="#3D3D3D" fill-rule="nonzero" points="54.9593496 21.2389381 54.9593496 23.8938053 56.0162602 23.8938053 56.0162602 21.2389381"></polygon>
                    <path d="M39.4227642,50.4955752 C39.4227642,51.2920354 38.7357724,51.9292035 37.9430894,51.9292035 C37.097561,51.9292035 36.4634146,51.2920354 36.4634146,50.4955752 C36.4634146,49.699115 37.1504065,47.0442478 37.9430894,47.0442478 C38.7357724,47.0973451 39.4227642,49.699115 39.4227642,50.4955752 L39.4227642,50.4955752 Z" id="Shape" fill="#53AF80"></path>
                    <path d="M38.8943089,50.4955752 C38.8943089,49.6227002 38.1672231,47.5914133 37.9430894,47.5752212 C37.7180908,47.5752212 36.9918699,49.6218887 36.9918699,50.4955752 C36.9918699,51.0037007 37.3945964,51.3982301 37.9430894,51.3982301 C38.4598244,51.3982301 38.8943089,50.9829706 38.8943089,50.4955752 Z M39.9512195,50.4955752 C39.9512195,51.5816744 39.0320455,52.460177 37.9430894,52.460177 C36.8167857,52.460177 35.9349593,51.5962993 35.9349593,50.4955752 C35.9349593,49.0575846 36.8377593,46.5132743 37.9782418,46.5144504 C39.0540257,46.586511 39.9512195,49.0930348 39.9512195,50.4955752 Z" id="Shape" fill="#3D3D3D" fill-rule="nonzero"></path>
                    <polygon id="Shape" fill="#3D3D3D" fill-rule="nonzero" points="37.5203252 50.4424779 37.5203252 53.0973451 38.5772358 53.0973451 38.5772358 50.4424779"></polygon>
                    <path d="M30.4918699,33.6106195 C30.4918699,34.4070796 29.804878,35.0442478 29.0121951,35.0442478 C28.2195122,35.0442478 27.5325203,34.4070796 27.5325203,33.6106195 C27.5325203,32.8141593 28.2195122,30.159292 29.0121951,30.159292 C29.804878,30.159292 30.4918699,32.8141593 30.4918699,33.6106195 L30.4918699,33.6106195 Z" id="Shape" fill="#53AF80"></path>
                    <path d="M29.9634146,33.6106195 C29.9634146,32.736933 29.2371937,30.6902655 29.0121951,30.6902655 C28.7871965,30.6902655 28.0609756,32.736933 28.0609756,33.6106195 C28.0609756,34.0980148 28.4954601,34.5132743 29.0121951,34.5132743 C29.5289301,34.5132743 29.9634146,34.0980148 29.9634146,33.6106195 Z M31.0203252,33.6106195 C31.0203252,34.6967186 30.1011512,35.5752212 29.0121951,35.5752212 C27.9232391,35.5752212 27.004065,34.6967186 27.004065,33.6106195 C27.004065,32.1726289 27.906865,29.6283186 29.0121951,29.6283186 C30.1175252,29.6283186 31.0203252,32.1726289 31.0203252,33.6106195 Z" id="Shape" fill="#3D3D3D" fill-rule="nonzero"></path>
                    <polygon id="Shape" fill="#3D3D3D" fill-rule="nonzero" points="28.5365854 33.4513274 28.5365854 36.1061947 29.5934959 36.1061947 29.5934959 33.4513274"></polygon>
                    <path d="M30.4918699,12.7433628 C30.4918699,13.539823 29.804878,14.1769912 29.0121951,14.1769912 C28.2195122,14.1769912 27.5325203,13.539823 27.5325203,12.7433628 C27.5325203,11.9469027 28.2195122,9.2920354 29.0121951,9.2920354 C29.804878,9.2920354 30.4918699,11.9469027 30.4918699,12.7433628 L30.4918699,12.7433628 Z" id="Shape" fill="#53AF80"></path>
                    <path d="M29.9634146,12.7433628 C29.9634146,11.8696763 29.2371937,9.82300885 29.0121951,9.82300885 C28.7871965,9.82300885 28.0609756,11.8696763 28.0609756,12.7433628 C28.0609756,13.2307582 28.4954601,13.6460177 29.0121951,13.6460177 C29.5289301,13.6460177 29.9634146,13.2307582 29.9634146,12.7433628 Z M31.0203252,12.7433628 C31.0203252,13.829462 30.1011512,14.7079646 29.0121951,14.7079646 C27.9232391,14.7079646 27.004065,13.829462 27.004065,12.7433628 C27.004065,11.3053722 27.906865,8.76106195 29.0121951,8.76106195 C30.1175252,8.76106195 31.0203252,11.3053722 31.0203252,12.7433628 Z" id="Shape" fill="#3D3D3D" fill-rule="nonzero"></path>
                    <polygon id="Shape" fill="#3D3D3D" fill-rule="nonzero" points="28.5365854 12.7433628 28.5365854 15.3982301 29.5934959 15.3982301 29.5934959 12.7433628"></polygon>
                    <path d="M5.86585366,43.0619469 C5.86585366,43.8584071 5.3902439,44.4955752 4.75609756,44.4955752 C4.12195122,44.4955752 3.64634146,43.8584071 3.64634146,43.0619469 C3.64634146,42.2654867 4.12195122,39.6106195 4.75609756,39.6106195 C5.3902439,39.6106195 5.86585366,42.2654867 5.86585366,43.0619469 L5.86585366,43.0619469 Z" id="Shape" fill="#53AF80"></path>
                    <path d="M4.4747571,41.1716399 C4.3007534,41.8418325 4.17479675,42.6759572 4.17479675,43.0619469 C4.17479675,43.5990287 4.45467314,43.9646018 4.75609756,43.9646018 C5.05752198,43.9646018 5.33739837,43.5990287 5.33739837,43.0619469 C5.33739837,42.6759572 5.21144173,41.8418325 5.03743803,41.1716399 C4.94896003,40.8308581 4.85220884,40.5441617 4.75609756,40.3399162 C4.65998628,40.5441617 4.56323509,40.8308581 4.4747571,41.1716399 Z M6.39430894,43.0619469 C6.39430894,44.1337147 5.7107707,45.0265487 4.75609756,45.0265487 C3.80142442,45.0265487 3.11788618,44.1337147 3.11788618,43.0619469 C3.11788618,41.5124214 3.74951344,39.079646 4.75609756,39.079646 C5.76268168,39.079646 6.39430894,41.5124214 6.39430894,43.0619469 Z" id="Shape" fill="#3D3D3D" fill-rule="nonzero"></path>
                    <polygon id="Shape" fill="#3D3D3D" fill-rule="nonzero" points="4.22764228 43.0088496 4.22764228 45.6637168 5.28455285 45.6637168 5.28455285 43.0088496"></polygon>
                    <path d="M59.7154472,14.3893805 C58.5188302,14.3893805 57.5487805,13.4147084 57.5487805,12.2123894 C57.5487805,11.0100704 58.5188302,10.0353982 59.7154472,10.0353982 C60.9120641,10.0353982 61.8821138,11.0100704 61.8821138,12.2123894 C61.8821138,13.4147084 60.9120641,14.3893805 59.7154472,14.3893805 Z M59.7154472,13.3274336 C60.3283485,13.3274336 60.8252033,12.8282113 60.8252033,12.2123894 C60.8252033,11.5965674 60.3283485,11.0973451 59.7154472,11.0973451 C59.1025458,11.0973451 58.6056911,11.5965674 58.6056911,12.2123894 C58.6056911,12.8282113 59.1025458,13.3274336 59.7154472,13.3274336 Z" id="Oval" fill="#3D3D3D" fill-rule="nonzero"></path>
                    <polygon id="Shape" fill="#3D3D3D" fill-rule="nonzero" points="59.3699951 10.619469 59.3699951 13.8094691 60.0699951 13.8094691 60.0699951 10.619469"></polygon>
                    <polygon id="Shape" fill="#3D3D3D" fill-rule="nonzero" points="58.1300813 12.6000244 61.300813 12.6000244 61.300813 11.9000244 58.1300813 11.9000244"></polygon>
                </g>
                <g id="Group-8" transform="translate(54.000000, 30.000000)">
                    <path d="M16.3793103,29.673913 L2.62068966,29.673913 C1.37586207,29.673913 0.327586207,28.6630435 0.327586207,27.3913043 L0.327586207,2.60869565 C0.327586207,1.36956522 1.34310345,0.326086957 2.62068966,0.326086957 L16.3793103,0.326086957 C17.6241379,0.326086957 18.6724138,1.33695652 18.6724138,2.60869565 L18.6724138,27.3913043 C18.6724138,28.6304348 17.6568966,29.673913 16.3793103,29.673913 Z" id="Shape" fill="#EEEEEE"></path>
                    <path d="M18.3448276,27.3913043 L18.3448276,2.60869565 C18.3448276,1.52896171 17.4552876,0.652173913 16.3793103,0.652173913 L2.62068966,0.652173913 C1.53599142,0.652173913 0.655172414,1.53764278 0.655172414,2.60869565 L0.655172414,27.3913043 C0.655172414,28.4710383 1.5447124,29.3478261 2.62068966,29.3478261 L16.3793103,29.3478261 C17.4640086,29.3478261 18.3448276,28.4623572 18.3448276,27.3913043 Z M19,27.3913043 C19,28.8211124 17.8273031,30 16.3793103,30 L2.62068966,30 C1.18430774,30 0,28.8326702 0,27.3913043 L0,2.60869565 C0,1.17888757 1.17269688,0 2.62068966,0 L16.3793103,0 C17.8156923,0 19,1.16732985 19,2.60869565 L19,27.3913043 Z" id="Shape" stroke="#3D3D3D" stroke-width="0.4" fill="#3D3D3D" fill-rule="nonzero"></path>
                    <rect id="Rectangle-path" fill="#FFFFFF" x="1.63793103" y="2.2826087" width="15.7241379" height="22.826087" rx="1"></rect>
                    <ellipse id="Oval" fill="#3D3D3D" cx="9.53275862" cy="27.1956522" rx="1.1137931" ry="1.10869565"></ellipse>
                    <path d="M9.56551724,9.35869565 C7.50172414,9.35869565 5.8637931,11.0217391 5.8637931,13.0434783 C5.8637931,17.6086957 9.56551724,20.3804348 9.56551724,20.3804348 C9.56551724,20.3804348 13.2672414,17.5108696 13.2672414,13.0434783 C13.2672414,10.9891304 11.5965517,9.35869565 9.56551724,9.35869565 L9.56551724,9.35869565 Z M9.56551724,14.9021739 C8.58275862,14.9021739 7.7637931,14.0869565 7.7637931,13.1086957 C7.7637931,12.1304348 8.58275862,11.3152174 9.56551724,11.3152174 C10.5482759,11.3152174 11.3672414,12.1304348 11.3672414,13.1086957 C11.3672414,14.0869565 10.5482759,14.9021739 9.56551724,14.9021739 L9.56551724,14.9021739 Z" id="Shape" fill="#53AF80"></path>
                    <path d="M9.91452617,19.6294629 C10.3356914,19.2182636 10.7573836,18.7386945 11.1507896,18.1963383 C12.2702034,16.6530951 12.9396552,14.9222556 12.9396552,13.0434783 C12.9396552,11.1809054 11.4274328,9.68478261 9.56551724,9.68478261 C7.70360165,9.68478261 6.19137931,11.1809054 6.19137931,13.0434783 C6.19137931,14.9651216 6.86063537,16.7042983 7.97936423,18.2318148 C8.3722484,18.7682603 8.79332849,19.2393437 9.21382695,19.6406314 C9.33865515,19.7597568 9.45559673,19.8651304 9.56241449,19.9564265 C9.67023478,19.8617622 9.7883709,19.7526329 9.91452617,19.6294629 Z M13.5948276,13.0434783 C13.5948276,15.0736683 12.8761328,16.9318234 11.681969,18.5781183 C11.2656228,19.1521003 10.8197234,19.659199 10.3732971,20.0950616 C10.2164828,20.2481652 10.0704934,20.3816648 9.93893705,20.4949875 C9.85865317,20.564144 9.80007056,20.6119137 9.76679403,20.6377096 L9.56897008,20.7910621 L9.36859504,20.6410274 C9.33505068,20.6159104 9.27620191,20.569427 9.19565386,20.5020195 C9.06380023,20.3916764 8.91751876,20.2613294 8.76041874,20.1114066 C8.31332561,19.6847392 7.8668141,19.1852044 7.44994611,18.6160113 C6.25509739,16.9845604 5.5362069,15.1164001 5.5362069,13.0434783 C5.5362069,10.8198237 7.34265391,9.0326087 9.56551724,9.0326087 C11.7883806,9.0326087 13.5948276,10.8198237 13.5948276,13.0434783 Z" id="Shape" fill="#3D3D3D" fill-rule="nonzero"></path>
                    <path d="M9.56551724,15.2282609 C8.38953161,15.2282609 7.4362069,14.2792992 7.4362069,13.1086957 C7.4362069,11.9380921 8.38953161,10.9891304 9.56551724,10.9891304 C10.7415029,10.9891304 11.6948276,11.9380921 11.6948276,13.1086957 C11.6948276,14.2792992 10.7415029,15.2282609 9.56551724,15.2282609 Z M9.56551724,14.576087 C10.3796611,14.576087 11.0396552,13.9191135 11.0396552,13.1086957 C11.0396552,12.2982778 10.3796611,11.6413043 9.56551724,11.6413043 C8.75137334,11.6413043 8.09137931,12.2982778 8.09137931,13.1086957 C8.09137931,13.9191135 8.75137334,14.576087 9.56551724,14.576087 Z" id="Oval" fill="#3D3D3D" fill-rule="nonzero"></path>
                </g>
            </g>
        </g>
    </g>
</svg>